<svg width="24" height="24" viewBox="0 0 24 24" fill="none" xmlns="http://www.w3.org/2000/svg">
<path d="M22.8304 10.2585C22.1223 13.671 18.93 18.2784 12.1003 20.9817C12.0382 21.0061 11.9693 21.0061 11.9072 20.9817C5.08017 18.2784 1.88797 13.671 1.1771 10.2585M22.8304 10.2585L23.0752 10.3093C23.0752 10.3093 23.0752 10.3093 23.0752 10.3093M22.8304 10.2585L23.0752 10.3093M22.8304 10.2585C23.2892 8.05162 22.809 6.08755 21.4892 4.72634H2.51837M23.0752 10.3093C22.3471 13.8178 19.0865 18.4854 12.1923 21.2142L12.1917 21.2144C12.0708 21.2619 11.9367 21.2619 11.8159 21.2144L11.8152 21.2142C4.92404 18.4855 1.6635 13.8183 0.932464 10.31M23.0752 10.3093C23.5472 8.03827 23.0573 5.98447 21.6687 4.55232L21.6677 4.55131C19.7024 2.54708 17.4689 2.49919 15.6262 3.05415C13.9651 3.5544 12.6058 4.54609 11.9956 5.04248C11.3846 4.54634 10.0254 3.55449 8.36635 3.05418C6.52605 2.49922 4.29709 2.547 2.3398 4.55137M0.932464 10.31C0.932501 10.3101 0.932537 10.3103 0.932574 10.3105L1.1771 10.2585M0.932464 10.31C0.932428 10.3098 0.932392 10.3096 0.932357 10.3094L1.1771 10.2585M0.932464 10.31C0.449607 8.0394 0.928212 5.98705 2.3398 4.55137M1.1771 10.2585C0.707661 8.05162 1.1771 6.09028 2.51837 4.72634M2.51837 4.72634L2.33949 4.55169C2.33959 4.55159 2.3397 4.55148 2.3398 4.55137M2.51837 4.72634L2.34011 4.55106C2.34001 4.55116 2.3399 4.55127 2.3398 4.55137M22.0545 10.0958L22.0547 10.095C22.4679 8.1367 22.0419 6.43833 20.9268 5.29661L22.0545 10.0958ZM22.0545 10.0958C21.4017 13.2385 18.4326 17.5581 11.9957 20.1666C5.55888 17.5581 2.58972 13.2385 1.93692 10.0958L1.93689 10.0956M22.0545 10.0958L1.93689 10.0956M1.93689 10.0956C1.52847 8.13541 1.94244 6.43029 3.07675 5.28706L3.07688 5.28718M1.93689 10.0956L3.07688 5.28718M3.07688 5.28718L3.08331 5.28019M3.07688 5.28718L3.08331 5.28019M3.08331 5.28019C3.51637 4.80923 4.03976 4.43407 4.62086 4.17777C5.20194 3.92147 5.82846 3.78943 6.46156 3.78972H6.46168M3.08331 5.28019L6.46168 3.78972M6.46168 3.78972C7.77858 3.78972 9.03437 4.33095 9.99277 4.90346M6.46168 3.78972L9.99277 4.90346M9.99277 4.90346C10.873 5.42927 11.4814 5.96837 11.6345 6.10409M9.99277 4.90346L11.6345 6.10409M11.6345 6.10409C11.645 6.11339 11.6534 6.1208 11.6596 6.12618M11.6345 6.10409L11.6596 6.12618M11.6596 6.12618C11.7546 6.2138 11.8792 6.26302 12.0091 6.26302C12.141 6.26302 12.2672 6.21239 12.3628 6.12242M11.6596 6.12618L12.3628 6.12242M12.3628 6.12242C12.3627 6.12249 12.3626 6.12255 12.3625 6.12261L12.1915 5.94025L12.3631 6.12212C12.363 6.12222 12.3629 6.12232 12.3628 6.12242ZM12.3628 6.12242C12.461 6.0303 13.7063 4.87717 15.3849 4.22668M12.3628 6.12242L15.3849 4.22668M15.3849 4.22668C16.2225 3.90209 17.1556 3.70763 18.1012 3.82271M15.3849 4.22668L18.1012 3.82271M18.1012 3.82271C19.0417 3.93717 20.0111 4.35957 20.9267 5.29657L18.1012 3.82271Z" fill="white"/>
<path d="M22.8304 10.2585C22.1223 13.671 18.93 18.2784 12.1003 20.9817C12.0382 21.0061 11.9693 21.0061 11.9072 20.9817C5.08017 18.2784 1.88797 13.671 1.1771 10.2585M22.8304 10.2585L23.0752 10.3093C23.0752 10.3093 23.0752 10.3093 23.0752 10.3093M22.8304 10.2585L23.0752 10.3093M22.8304 10.2585C23.2892 8.05162 22.809 6.08755 21.4892 4.72634H2.51837M23.0752 10.3093C22.3471 13.8178 19.0865 18.4854 12.1923 21.2142L12.1917 21.2144C12.0708 21.2619 11.9367 21.2619 11.8159 21.2144L11.8152 21.2142C4.92404 18.4855 1.6635 13.8183 0.932464 10.31M23.0752 10.3093C23.5472 8.03827 23.0573 5.98447 21.6687 4.55232L21.6677 4.55131C19.7024 2.54708 17.4689 2.49919 15.6262 3.05415C13.9651 3.5544 12.6058 4.54609 11.9956 5.04248C11.3846 4.54634 10.0254 3.55449 8.36635 3.05418C6.52605 2.49922 4.29709 2.547 2.3398 4.55137M0.932464 10.31C0.932501 10.3101 0.932537 10.3103 0.932574 10.3105L1.1771 10.2585M0.932464 10.31C0.932428 10.3098 0.932392 10.3096 0.932357 10.3094L1.1771 10.2585M0.932464 10.31C0.449607 8.0394 0.928212 5.98705 2.3398 4.55137M1.1771 10.2585C0.707661 8.05162 1.1771 6.09028 2.51837 4.72634M2.51837 4.72634L2.33949 4.55169C2.33959 4.55159 2.3397 4.55148 2.3398 4.55137M2.51837 4.72634L2.34011 4.55106C2.34001 4.55116 2.3399 4.55127 2.3398 4.55137M22.0545 10.0958L22.0547 10.095C22.4679 8.1367 22.0419 6.43833 20.9268 5.29661L22.0545 10.0958ZM22.0545 10.0958C21.4017 13.2385 18.4326 17.5581 11.9957 20.1666C5.55888 17.5581 2.58972 13.2385 1.93692 10.0958L1.93689 10.0956M22.0545 10.0958L1.93689 10.0956M1.93689 10.0956C1.52847 8.13541 1.94244 6.43029 3.07675 5.28706L3.07688 5.28718M1.93689 10.0956L3.07688 5.28718M3.07688 5.28718L3.08331 5.28019M3.07688 5.28718L3.08331 5.28019M3.08331 5.28019C3.51637 4.80923 4.03976 4.43407 4.62086 4.17777C5.20194 3.92147 5.82846 3.78943 6.46156 3.78972H6.46168M3.08331 5.28019L6.46168 3.78972M6.46168 3.78972C7.77858 3.78972 9.03437 4.33095 9.99277 4.90346M6.46168 3.78972L9.99277 4.90346M9.99277 4.90346C10.873 5.42927 11.4814 5.96837 11.6345 6.10409M9.99277 4.90346L11.6345 6.10409M11.6345 6.10409C11.645 6.11339 11.6534 6.1208 11.6596 6.12618M11.6345 6.10409L11.6596 6.12618M11.6596 6.12618C11.7546 6.2138 11.8792 6.26302 12.0091 6.26302C12.141 6.26302 12.2672 6.21239 12.3628 6.12242M11.6596 6.12618L12.3628 6.12242M12.3628 6.12242C12.3627 6.12249 12.3626 6.12255 12.3625 6.12261L12.1915 5.94025L12.3631 6.12212C12.363 6.12222 12.3629 6.12232 12.3628 6.12242ZM12.3628 6.12242C12.461 6.0303 13.7063 4.87717 15.3849 4.22668M12.3628 6.12242L15.3849 4.22668M15.3849 4.22668C16.2225 3.90209 17.1556 3.70763 18.1012 3.82271M15.3849 4.22668L18.1012 3.82271M18.1012 3.82271C19.0417 3.93717 20.0111 4.35957 20.9267 5.29657L18.1012 3.82271Z" fill="url(#paint0_linear_1_347)"/>
<path d="M22.8304 10.2585C22.1223 13.671 18.93 18.2784 12.1003 20.9817C12.0382 21.0061 11.9693 21.0061 11.9072 20.9817C5.08017 18.2784 1.88797 13.671 1.1771 10.2585M22.8304 10.2585L23.0752 10.3093C23.0752 10.3093 23.0752 10.3093 23.0752 10.3093M22.8304 10.2585L23.0752 10.3093M22.8304 10.2585C23.2892 8.05162 22.809 6.08755 21.4892 4.72634H2.51837M23.0752 10.3093C22.3471 13.8178 19.0865 18.4854 12.1923 21.2142L12.1917 21.2144C12.0708 21.2619 11.9367 21.2619 11.8159 21.2144L11.8152 21.2142C4.92404 18.4855 1.6635 13.8183 0.932464 10.31M23.0752 10.3093C23.5472 8.03827 23.0573 5.98447 21.6687 4.55232L21.6677 4.55131C19.7024 2.54708 17.4689 2.49919 15.6262 3.05415C13.9651 3.5544 12.6058 4.54609 11.9956 5.04248C11.3846 4.54634 10.0254 3.55449 8.36635 3.05418C6.52605 2.49922 4.29709 2.547 2.3398 4.55137M0.932464 10.31C0.932501 10.3101 0.932537 10.3103 0.932574 10.3105L1.1771 10.2585M0.932464 10.31C0.932428 10.3098 0.932392 10.3096 0.932357 10.3094L1.1771 10.2585M0.932464 10.31C0.449607 8.0394 0.928212 5.98705 2.3398 4.55137M1.1771 10.2585C0.707661 8.05162 1.1771 6.09028 2.51837 4.72634M2.51837 4.72634L2.33949 4.55169C2.33959 4.55159 2.3397 4.55148 2.3398 4.55137M2.51837 4.72634L2.34011 4.55106C2.34001 4.55116 2.3399 4.55127 2.3398 4.55137M22.0545 10.0958L22.0547 10.095C22.4679 8.1367 22.0419 6.43833 20.9268 5.29661L22.0545 10.0958ZM22.0545 10.0958C21.4017 13.2385 18.4326 17.5581 11.9957 20.1666C5.55888 17.5581 2.58972 13.2385 1.93692 10.0958L1.93689 10.0956M22.0545 10.0958L1.93689 10.0956M1.93689 10.0956C1.52847 8.13541 1.94244 6.43029 3.07675 5.28706L3.07688 5.28718M1.93689 10.0956L3.07688 5.28718M3.07688 5.28718L3.08331 5.28019M3.07688 5.28718L3.08331 5.28019M3.08331 5.28019C3.51637 4.80923 4.03976 4.43407 4.62086 4.17777C5.20194 3.92147 5.82846 3.78943 6.46156 3.78972H6.46168M3.08331 5.28019L6.46168 3.78972M6.46168 3.78972C7.77858 3.78972 9.03437 4.33095 9.99277 4.90346M6.46168 3.78972L9.99277 4.90346M9.99277 4.90346C10.873 5.42927 11.4814 5.96837 11.6345 6.10409M9.99277 4.90346L11.6345 6.10409M11.6345 6.10409C11.645 6.11339 11.6534 6.1208 11.6596 6.12618M11.6345 6.10409L11.6596 6.12618M11.6596 6.12618C11.7546 6.2138 11.8792 6.26302 12.0091 6.26302C12.141 6.26302 12.2672 6.21239 12.3628 6.12242M11.6596 6.12618L12.3628 6.12242M12.3628 6.12242C12.3627 6.12249 12.3626 6.12255 12.3625 6.12261L12.1915 5.94025L12.3631 6.12212C12.363 6.12222 12.3629 6.12232 12.3628 6.12242ZM12.3628 6.12242C12.461 6.0303 13.7063 4.87717 15.3849 4.22668M12.3628 6.12242L15.3849 4.22668M15.3849 4.22668C16.2225 3.90209 17.1556 3.70763 18.1012 3.82271M15.3849 4.22668L18.1012 3.82271M18.1012 3.82271C19.0417 3.93717 20.0111 4.35957 20.9267 5.29657L18.1012 3.82271Z" stroke="white" stroke-width="0.5"/>
<path d="M22.8304 10.2585C22.1223 13.671 18.93 18.2784 12.1003 20.9817C12.0382 21.0061 11.9693 21.0061 11.9072 20.9817C5.08017 18.2784 1.88797 13.671 1.1771 10.2585M22.8304 10.2585L23.0752 10.3093C23.0752 10.3093 23.0752 10.3093 23.0752 10.3093M22.8304 10.2585L23.0752 10.3093M22.8304 10.2585C23.2892 8.05162 22.809 6.08755 21.4892 4.72634H2.51837M23.0752 10.3093C22.3471 13.8178 19.0865 18.4854 12.1923 21.2142L12.1917 21.2144C12.0708 21.2619 11.9367 21.2619 11.8159 21.2144L11.8152 21.2142C4.92404 18.4855 1.6635 13.8183 0.932464 10.31M23.0752 10.3093C23.5472 8.03827 23.0573 5.98447 21.6687 4.55232L21.6677 4.55131C19.7024 2.54708 17.4689 2.49919 15.6262 3.05415C13.9651 3.5544 12.6058 4.54609 11.9956 5.04248C11.3846 4.54634 10.0254 3.55449 8.36635 3.05418C6.52605 2.49922 4.29709 2.547 2.3398 4.55137M0.932464 10.31C0.932501 10.3101 0.932537 10.3103 0.932574 10.3105L1.1771 10.2585M0.932464 10.31C0.932428 10.3098 0.932392 10.3096 0.932357 10.3094L1.1771 10.2585M0.932464 10.31C0.449607 8.0394 0.928212 5.98705 2.3398 4.55137M1.1771 10.2585C0.707661 8.05162 1.1771 6.09028 2.51837 4.72634M2.51837 4.72634L2.33949 4.55169C2.33959 4.55159 2.3397 4.55148 2.3398 4.55137M2.51837 4.72634L2.34011 4.55106C2.34001 4.55116 2.3399 4.55127 2.3398 4.55137M22.0545 10.0958L22.0547 10.095C22.4679 8.1367 22.0419 6.43833 20.9268 5.29661L22.0545 10.0958ZM22.0545 10.0958C21.4017 13.2385 18.4326 17.5581 11.9957 20.1666C5.55888 17.5581 2.58972 13.2385 1.93692 10.0958L1.93689 10.0956M22.0545 10.0958L1.93689 10.0956M1.93689 10.0956C1.52847 8.13541 1.94244 6.43029 3.07675 5.28706L3.07688 5.28718M1.93689 10.0956L3.07688 5.28718M3.07688 5.28718L3.08331 5.28019M3.07688 5.28718L3.08331 5.28019M3.08331 5.28019C3.51637 4.80923 4.03976 4.43407 4.62086 4.17777C5.20194 3.92147 5.82846 3.78943 6.46156 3.78972H6.46168M3.08331 5.28019L6.46168 3.78972M6.46168 3.78972C7.77858 3.78972 9.03437 4.33095 9.99277 4.90346M6.46168 3.78972L9.99277 4.90346M9.99277 4.90346C10.873 5.42927 11.4814 5.96837 11.6345 6.10409M9.99277 4.90346L11.6345 6.10409M11.6345 6.10409C11.645 6.11339 11.6534 6.1208 11.6596 6.12618M11.6345 6.10409L11.6596 6.12618M11.6596 6.12618C11.7546 6.2138 11.8792 6.26302 12.0091 6.26302C12.141 6.26302 12.2672 6.21239 12.3628 6.12242M11.6596 6.12618L12.3628 6.12242M12.3628 6.12242C12.3627 6.12249 12.3626 6.12255 12.3625 6.12261L12.1915 5.94025L12.3631 6.12212C12.363 6.12222 12.3629 6.12232 12.3628 6.12242ZM12.3628 6.12242C12.461 6.0303 13.7063 4.87717 15.3849 4.22668M12.3628 6.12242L15.3849 4.22668M15.3849 4.22668C16.2225 3.90209 17.1556 3.70763 18.1012 3.82271M15.3849 4.22668L18.1012 3.82271M18.1012 3.82271C19.0417 3.93717 20.0111 4.35957 20.9267 5.29657L18.1012 3.82271Z" stroke="url(#paint1_linear_1_347)" stroke-width="0.5"/>
<path d="M15.2665 8.75C14.9583 8.75 14.6247 8.86529 14.3047 9.0246C13.9803 9.18613 13.6464 9.40488 13.3318 9.63758C12.8081 10.0248 12.3224 10.4619 12 10.7676C11.6776 10.4619 11.1919 10.0248 10.6682 9.63758C10.3536 9.40488 10.0197 9.18613 9.69531 9.0246C9.37533 8.86529 9.04173 8.75 8.7335 8.75C7.33532 8.75 6.25 10.0126 6.25 11.5013C6.25 12.9907 7.33863 14.25 8.7335 14.25C9.04173 14.25 9.37533 14.1347 9.69531 13.9754C10.0197 13.8139 10.3536 13.5951 10.6682 13.3624C11.1919 12.9752 11.6776 12.5381 12 12.2324C12.3224 12.5381 12.8081 12.9752 13.3318 13.3624C13.6464 13.5951 13.9803 13.8139 14.3047 13.9754C14.6247 14.1347 14.9583 14.25 15.2665 14.25C16.6643 14.25 17.75 12.9904 17.75 11.5013C17.75 10.0126 16.6647 8.75 15.2665 8.75ZM8.7335 13.2127C7.98314 13.2127 7.30838 12.4819 7.30838 11.5013C7.30838 10.5206 7.98609 9.78735 8.7335 9.78735C8.83496 9.78735 8.99976 9.83551 9.22562 9.9506C9.44413 10.0619 9.69287 10.2217 9.95343 10.4112C10.3997 10.7358 10.8658 11.1366 11.2512 11.5011C10.8657 11.8646 10.3997 12.2648 9.95352 12.5891C9.69293 12.7784 9.44418 12.9381 9.22565 13.0494C8.99977 13.1645 8.83496 13.2127 8.7335 13.2127ZM15.2665 13.2127C15.165 13.2127 15.0002 13.1645 14.7743 13.0494C14.5558 12.9381 14.3071 12.7784 14.0465 12.5891C13.6001 12.2647 13.1339 11.8642 12.7483 11.5006C13.1318 11.1366 13.5989 10.7359 14.0463 10.4114C14.3076 10.2219 14.5571 10.062 14.7759 9.95064C15.0023 9.83536 15.1666 9.78735 15.2665 9.78735C16.0167 9.78735 16.6916 10.5178 16.6916 11.5013C16.6916 12.4841 16.0145 13.2127 15.2665 13.2127Z" fill="white"/>
<path d="M15.2665 8.75C14.9583 8.75 14.6247 8.86529 14.3047 9.0246C13.9803 9.18613 13.6464 9.40488 13.3318 9.63758C12.8081 10.0248 12.3224 10.4619 12 10.7676C11.6776 10.4619 11.1919 10.0248 10.6682 9.63758C10.3536 9.40488 10.0197 9.18613 9.69531 9.0246C9.37533 8.86529 9.04173 8.75 8.7335 8.75C7.33532 8.75 6.25 10.0126 6.25 11.5013C6.25 12.9907 7.33863 14.25 8.7335 14.25C9.04173 14.25 9.37533 14.1347 9.69531 13.9754C10.0197 13.8139 10.3536 13.5951 10.6682 13.3624C11.1919 12.9752 11.6776 12.5381 12 12.2324C12.3224 12.5381 12.8081 12.9752 13.3318 13.3624C13.6464 13.5951 13.9803 13.8139 14.3047 13.9754C14.6247 14.1347 14.9583 14.25 15.2665 14.25C16.6643 14.25 17.75 12.9904 17.75 11.5013C17.75 10.0126 16.6647 8.75 15.2665 8.75ZM8.7335 13.2127C7.98314 13.2127 7.30838 12.4819 7.30838 11.5013C7.30838 10.5206 7.98609 9.78735 8.7335 9.78735C8.83496 9.78735 8.99976 9.83551 9.22562 9.9506C9.44413 10.0619 9.69287 10.2217 9.95343 10.4112C10.3997 10.7358 10.8658 11.1366 11.2512 11.5011C10.8657 11.8646 10.3997 12.2648 9.95352 12.5891C9.69293 12.7784 9.44418 12.9381 9.22565 13.0494C8.99977 13.1645 8.83496 13.2127 8.7335 13.2127ZM15.2665 13.2127C15.165 13.2127 15.0002 13.1645 14.7743 13.0494C14.5558 12.9381 14.3071 12.7784 14.0465 12.5891C13.6001 12.2647 13.1339 11.8642 12.7483 11.5006C13.1318 11.1366 13.5989 10.7359 14.0463 10.4114C14.3076 10.2219 14.5571 10.062 14.7759 9.95064C15.0023 9.83536 15.1666 9.78735 15.2665 9.78735C16.0167 9.78735 16.6916 10.5178 16.6916 11.5013C16.6916 12.4841 16.0145 13.2127 15.2665 13.2127Z" fill="url(#paint2_linear_1_347)"/>
<path d="M15.2665 8.75C14.9583 8.75 14.6247 8.86529 14.3047 9.0246C13.9803 9.18613 13.6464 9.40488 13.3318 9.63758C12.8081 10.0248 12.3224 10.4619 12 10.7676C11.6776 10.4619 11.1919 10.0248 10.6682 9.63758C10.3536 9.40488 10.0197 9.18613 9.69531 9.0246C9.37533 8.86529 9.04173 8.75 8.7335 8.75C7.33532 8.75 6.25 10.0126 6.25 11.5013C6.25 12.9907 7.33863 14.25 8.7335 14.25C9.04173 14.25 9.37533 14.1347 9.69531 13.9754C10.0197 13.8139 10.3536 13.5951 10.6682 13.3624C11.1919 12.9752 11.6776 12.5381 12 12.2324C12.3224 12.5381 12.8081 12.9752 13.3318 13.3624C13.6464 13.5951 13.9803 13.8139 14.3047 13.9754C14.6247 14.1347 14.9583 14.25 15.2665 14.25C16.6643 14.25 17.75 12.9904 17.75 11.5013C17.75 10.0126 16.6647 8.75 15.2665 8.75ZM8.7335 13.2127C7.98314 13.2127 7.30838 12.4819 7.30838 11.5013C7.30838 10.5206 7.98609 9.78735 8.7335 9.78735C8.83496 9.78735 8.99976 9.83551 9.22562 9.9506C9.44413 10.0619 9.69287 10.2217 9.95343 10.4112C10.3997 10.7358 10.8658 11.1366 11.2512 11.5011C10.8657 11.8646 10.3997 12.2648 9.95352 12.5891C9.69293 12.7784 9.44418 12.9381 9.22565 13.0494C8.99977 13.1645 8.83496 13.2127 8.7335 13.2127ZM15.2665 13.2127C15.165 13.2127 15.0002 13.1645 14.7743 13.0494C14.5558 12.9381 14.3071 12.7784 14.0465 12.5891C13.6001 12.2647 13.1339 11.8642 12.7483 11.5006C13.1318 11.1366 13.5989 10.7359 14.0463 10.4114C14.3076 10.2219 14.5571 10.062 14.7759 9.95064C15.0023 9.83536 15.1666 9.78735 15.2665 9.78735C16.0167 9.78735 16.6916 10.5178 16.6916 11.5013C16.6916 12.4841 16.0145 13.2127 15.2665 13.2127Z" stroke="white" stroke-width="0.5"/>
<path d="M15.2665 8.75C14.9583 8.75 14.6247 8.86529 14.3047 9.0246C13.9803 9.18613 13.6464 9.40488 13.3318 9.63758C12.8081 10.0248 12.3224 10.4619 12 10.7676C11.6776 10.4619 11.1919 10.0248 10.6682 9.63758C10.3536 9.40488 10.0197 9.18613 9.69531 9.0246C9.37533 8.86529 9.04173 8.75 8.7335 8.75C7.33532 8.75 6.25 10.0126 6.25 11.5013C6.25 12.9907 7.33863 14.25 8.7335 14.25C9.04173 14.25 9.37533 14.1347 9.69531 13.9754C10.0197 13.8139 10.3536 13.5951 10.6682 13.3624C11.1919 12.9752 11.6776 12.5381 12 12.2324C12.3224 12.5381 12.8081 12.9752 13.3318 13.3624C13.6464 13.5951 13.9803 13.8139 14.3047 13.9754C14.6247 14.1347 14.9583 14.25 15.2665 14.25C16.6643 14.25 17.75 12.9904 17.75 11.5013C17.75 10.0126 16.6647 8.75 15.2665 8.75ZM8.7335 13.2127C7.98314 13.2127 7.30838 12.4819 7.30838 11.5013C7.30838 10.5206 7.98609 9.78735 8.7335 9.78735C8.83496 9.78735 8.99976 9.83551 9.22562 9.9506C9.44413 10.0619 9.69287 10.2217 9.95343 10.4112C10.3997 10.7358 10.8658 11.1366 11.2512 11.5011C10.8657 11.8646 10.3997 12.2648 9.95352 12.5891C9.69293 12.7784 9.44418 12.9381 9.22565 13.0494C8.99977 13.1645 8.83496 13.2127 8.7335 13.2127ZM15.2665 13.2127C15.165 13.2127 15.0002 13.1645 14.7743 13.0494C14.5558 12.9381 14.3071 12.7784 14.0465 12.5891C13.6001 12.2647 13.1339 11.8642 12.7483 11.5006C13.1318 11.1366 13.5989 10.7359 14.0463 10.4114C14.3076 10.2219 14.5571 10.062 14.7759 9.95064C15.0023 9.83536 15.1666 9.78735 15.2665 9.78735C16.0167 9.78735 16.6916 10.5178 16.6916 11.5013C16.6916 12.4841 16.0145 13.2127 15.2665 13.2127Z" stroke="url(#paint3_linear_1_347)" stroke-width="0.5"/>
<defs>
<linearGradient id="paint0_linear_1_347" x1="23" y1="21" x2="5.35644" y2="-0.564356" gradientUnits="userSpaceOnUse">
<stop stop-color="#BB3DA0"/>
<stop offset="1" stop-color="#A762EA"/>
</linearGradient>
<linearGradient id="paint1_linear_1_347" x1="23" y1="21" x2="5.35644" y2="-0.564356" gradientUnits="userSpaceOnUse">
<stop stop-color="#BB3DA0"/>
<stop offset="1" stop-color="#A762EA"/>
</linearGradient>
<linearGradient id="paint2_linear_1_347" x1="17.5" y1="14" x2="13.7329" y2="5.71233" gradientUnits="userSpaceOnUse">
<stop stop-color="#BB3DA0"/>
<stop offset="1" stop-color="#A762EA"/>
</linearGradient>
<linearGradient id="paint3_linear_1_347" x1="17.5" y1="14" x2="13.7329" y2="5.71233" gradientUnits="userSpaceOnUse">
<stop stop-color="#BB3DA0"/>
<stop offset="1" stop-color="#A762EA"/>
</linearGradient>
</defs>
</svg>
