<svg width="25" height="24" viewBox="0 0 25 24" fill="none" xmlns="http://www.w3.org/2000/svg">
<path d="M15 19.5H10M15 19.5C15 18.7865 15 18.4297 15.0381 18.193C15.1609 17.4296 15.1824 17.3815 15.6692 16.7807C15.8201 16.5945 16.3805 16.0927 17.5012 15.0892C19.0349 13.7159 20 11.7206 20 9.5C20 5.35786 16.6421 2 12.5 2C8.35786 2 5 5.35786 5 9.5C5 11.7206 5.9651 13.7159 7.49876 15.0892C8.61945 16.0927 9.17987 16.5945 9.33082 16.7807C9.81762 17.3815 9.8391 17.4296 9.96192 18.193C10 18.4297 10 18.7865 10 19.5M15 19.5C15 20.4346 15 20.9019 14.799 21.25C14.6674 21.478 14.478 21.6674 14.25 21.799C13.9019 22 13.4346 22 12.5 22C11.5654 22 11.0981 22 10.75 21.799C10.522 21.6674 10.3326 21.478 10.201 21.25C10 20.9019 10 20.4346 10 19.5" stroke="white" stroke-width="1.5"/>
<path d="M12.5 17V15" stroke="white" stroke-width="1.5" stroke-linecap="round"/>
<path d="M14.2324 14C13.8866 14.5978 13.2403 15 12.5 15C11.7597 15 11.1134 14.5978 10.7676 14" stroke="white" stroke-width="1.5" stroke-linecap="round"/>
</svg>
