<svg width="20" height="20" viewBox="0 0 20 20" fill="none" xmlns="http://www.w3.org/2000/svg">
<path d="M9.49952 12.36C9.52662 12.3843 9.55358 12.4084 9.5804 12.4324C9.64068 12.4922 9.70418 12.5352 9.77546 12.5626C9.8471 12.5902 9.92144 12.6 9.99996 12.6C10.0785 12.6 10.1528 12.5902 10.2245 12.5626C10.2955 12.5353 10.3589 12.4925 10.419 12.4329C11.0843 11.8551 11.8357 11.1922 12.4205 10.4523C13.006 9.71158 13.4333 8.88293 13.4333 7.97366C13.4333 7.1614 13.1707 6.59789 12.7829 6.23807C12.3969 5.88 11.8973 5.73331 11.4386 5.73331C10.8398 5.73331 10.3479 6.0959 9.99977 6.40142C9.64707 6.09515 9.12667 5.73331 8.56136 5.73331C8.10266 5.73331 7.603 5.88 7.21704 6.23807C6.82918 6.59789 6.56663 7.1614 6.56663 7.97366C6.56663 8.88315 6.9941 9.70312 7.57958 10.4394C8.14068 11.145 8.85558 11.7843 9.49952 12.36ZM7.81926 7.97366C7.81926 7.615 7.88809 7.36943 8.00862 7.21502C8.1253 7.06552 8.30288 6.98594 8.56136 6.98594C8.61813 6.98594 8.69186 7.00707 8.7798 7.05105C8.8664 7.09435 8.95948 7.15608 9.05285 7.22823C9.23839 7.3716 9.41681 7.54964 9.53636 7.68593C9.6603 7.84939 9.82944 7.93331 10.035 7.93331C10.242 7.93331 10.412 7.84832 10.5361 7.68279C10.6372 7.54799 10.7986 7.36965 10.9717 7.22608C11.0582 7.15436 11.1454 7.09314 11.2276 7.05028C11.311 7.00684 11.3822 6.98594 11.4386 6.98594C11.694 6.98594 11.8725 7.07227 11.9906 7.22725C12.1123 7.38694 12.1807 7.63365 12.1807 7.97366C12.1807 8.5192 11.8988 9.07617 11.4693 9.6271C11.0586 10.154 10.5229 10.6629 9.99996 11.137C9.47703 10.6629 8.94129 10.154 8.53058 9.6271C8.10112 9.07617 7.81926 8.5192 7.81926 7.97366Z" fill="white" stroke="white" stroke-width="0.2"/>
<path d="M1.70292 16.4797L1.70289 16.4797L1.70135 16.4818C1.63129 16.5786 1.58755 16.7066 1.57662 16.8369C1.56586 16.9652 1.58623 17.1037 1.65339 17.2235C1.75138 17.4661 2.02358 17.6 2.24533 17.6H2.24556H2.24578H2.246H2.24623H2.24645H2.24667H2.24689H2.24711H2.24733H2.24755H2.24776H2.24798H2.2482H2.24841H2.24862H2.24884H2.24905H2.24926H2.24947H2.24968H2.24989H2.2501H2.2503H2.25051H2.25071H2.25092H2.25112H2.25133H2.25153H2.25173H2.25193H2.25213H2.25233H2.25253H2.25273H2.25292H2.25312H2.25331H2.25351H2.2537H2.2539H2.25409H2.25428H2.25447H2.25466H2.25485H2.25504H2.25523H2.25541H2.2556H2.25579H2.25597H2.25616H2.25634H2.25652H2.25671H2.25689H2.25707H2.25725H2.25743H2.25761H2.25779H2.25796H2.25814H2.25832H2.25849H2.25867H2.25884H2.25901H2.25919H2.25936H2.25953H2.2597H2.25987H2.26004H2.26021H2.26038H2.26055H2.26072H2.26088H2.26105H2.26121H2.26138H2.26154H2.26171H2.26187H2.26203H2.2622H2.26236H2.26252H2.26268H2.26284H2.263H2.26316H2.26331H2.26347H2.26363H2.26378H2.26394H2.2641H2.26425H2.2644H2.26456H2.26471H2.26486H2.26502H2.26517H2.26532H2.26547H2.26562H2.26577H2.26592H2.26607H2.26621H2.26636H2.26651H2.26666H2.2668H2.26695H2.26709H2.26724H2.26738H2.26752H2.26767H2.26781H2.26795H2.2681H2.26824H2.26838H2.26852H2.26866H2.2688H2.26894H2.26908H2.26922H2.26935H2.26949H2.26963H2.26976H2.2699H2.27004H2.27017H2.27031H2.27044H2.27058H2.27071H2.27085H2.27098H2.27111H2.27124H2.27138H2.27151H2.27164H2.27177H2.2719H2.27203H2.27216H2.27229H2.27242H2.27255H2.27268H2.27281H2.27294H2.27306H2.27319H2.27332H2.27345H2.27357H2.2737H2.27382H2.27395H2.27407H2.2742H2.27432H2.27445H2.27457H2.2747H2.27482H2.27494H2.27507H2.27519H2.27531H2.27544H2.27556H2.27568H2.2758H2.27592H2.27604H2.27616H2.27628H2.27641H2.27653H2.27665H2.27677H2.27688H2.277H2.27712H2.27724H2.27736H2.27748H2.2776H2.27772H2.27783H2.27795H2.27807H2.27819H2.2783H2.27842H2.27854H2.27865H2.27877H2.27889H2.279H2.27912H2.27924H2.27935H2.27947H2.27958H2.2797H2.27981H2.27993H2.28004H2.28016H2.28027H2.28039H2.2805H2.28062H2.28073H2.28085H2.28096H2.28108H2.28119H2.2813H2.28142H2.28153H2.28164H2.28176H2.28187H2.28199H2.2821H2.28221H2.28233H2.28244H2.28255H2.28267H2.28278H2.28289H2.28301H2.28312H2.28323H2.28334H2.28346H2.28357H2.28368H2.2838H2.28391H2.28402H2.28414H2.28425H2.28436H2.28448H2.28459H2.2847H2.28481H2.28493H2.28504H2.28515H2.28527H2.28538H2.28549H2.28561H2.28572H2.28583H2.28595H2.28606H2.28618H2.28629H2.2864H2.28652H2.28663H2.28674H2.28686H2.28697H2.28709H2.2872H2.28732H2.28743H2.28755H2.28766H2.28778H2.28789H2.28801H2.28812H2.28824H2.28835H2.28847H2.28858H2.2887H2.28882H2.28893H2.28905H2.28917H2.28928H2.2894H2.28952H2.28963H2.28975H2.28987H2.28999H2.2901H2.29022H2.29034H2.29046H2.29058H2.2907H2.29082H2.29094H2.29105H2.29117H2.29129H2.29141H2.29154H2.29166H2.29178H2.2919H2.29202H2.29214H2.29226H2.29238H2.29251H2.29263H2.29275H2.29288H2.293H2.29312H2.29325H2.29337H2.2935H2.29362H2.29375H2.29387H2.294H2.29412H2.29425H2.29437H2.2945H2.29463H2.29476H2.29488H2.29501H2.29514H2.29527H2.2954H2.29553H2.29566H2.29579H2.29592H2.29605H2.29618H2.29631H2.29644H2.29658H2.29671H2.29684H2.29697H2.29711H2.29724H2.29738H2.29751H2.29765H2.29778H2.29792H2.29806H2.29819H2.29833H2.29847H2.29861H2.29874H2.29888H2.29902H2.29916H2.2993H2.29944H2.29958H2.29972H2.29987H2.30001H2.30015H2.3003H2.30044H2.30058H2.30073H2.30087H2.30102H2.30116H2.30131H2.30146H2.30161H2.30175H2.3019H2.30205H2.3022H2.30235H2.3025H2.30265H2.3028H2.30296H2.30311H2.30326H2.30342H2.30357H2.30373H2.30388H2.30404H2.30419H2.30435H2.30451H2.30466H2.30482H2.30498H2.30514H2.3053H2.30546H2.30562H2.30579H2.30595H2.30611H2.30628H2.30644H2.30661H2.30677H2.30694H2.3071H2.30727H2.30744H2.30761H2.30778H2.30795H2.30812H2.30829H2.30846H2.30863H2.30881H2.30898H2.30915H2.30933H2.3095H2.30968H2.30986H2.31004H2.31021H2.31039H2.31057H2.31075H2.31093H2.31111H2.3113H2.31148H2.31166H2.31185H2.31203H2.31222H2.31241H2.31259H2.31278H2.31297H2.31316H2.31335H2.31354H2.31373H2.31392H2.31412H2.31431H2.31451H2.3147H2.3149H2.31509H2.31529H2.31549H2.31569H2.31589H2.31609H2.31629H2.31649H2.3167H2.3169H2.31711H2.31731H2.31752H2.31772H2.31793H2.31814H2.31835H2.31856H2.31877H2.31898H2.3192H2.31941H2.31963H2.31984H2.32006H2.32027H2.32049H2.32071H2.32093H2.32115H2.32137H2.32159H2.32182H2.32204H2.32226H2.32249V17.6008L2.33459 17.5993C2.35408 17.5969 2.38672 17.5933 2.43169 17.5883C3.1399 17.5096 6.90842 17.0907 10.6054 15.8606C12.5709 15.2067 14.5237 14.3212 15.987 13.1301C17.4516 11.9378 18.4333 10.4325 18.4333 8.54379C18.4333 4.67297 14.6273 1.56669 9.99996 1.56669C5.37261 1.56669 1.56663 4.67297 1.56663 8.54379C1.56663 10.426 2.44176 12.1866 3.9976 13.4778L1.70292 16.4797ZM5.48807 13.8427L5.48811 13.8427L5.48992 13.8402C5.61653 13.6653 5.66671 13.4797 5.62448 13.2896C5.61901 13.0917 5.48092 12.9103 5.3505 12.82C3.79019 11.7155 2.92403 10.1845 2.92403 8.58377C2.92403 5.50056 6.09733 2.96618 9.99996 2.96618C13.9031 2.96618 17.075 5.50066 17.0373 8.58255L17.0373 8.58255V8.58377C17.0373 10.1364 16.0643 11.3997 14.658 12.4109C13.2527 13.4215 11.4317 14.1673 9.77716 14.6857L9.77679 14.6859C7.51939 15.4028 5.26109 15.8342 3.78619 16.0474L5.48807 13.8427Z" fill="white" stroke="white" stroke-width="0.2"/>
</svg>
