<svg width="20" height="20" viewBox="0 0 20 20" fill="none" xmlns="http://www.w3.org/2000/svg">
<path fill-rule="evenodd" clip-rule="evenodd" d="M13.75 1.875C12.2542 1.875 11.0416 3.08756 11.0416 4.58333C11.0416 4.74659 11.0561 4.90647 11.0838 5.06177L7.14157 7.82131C7.12154 7.83534 7.10258 7.85032 7.08471 7.86616C6.62492 7.50622 6.04584 7.29167 5.41665 7.29167C3.92088 7.29167 2.70831 8.50423 2.70831 10C2.70831 11.4958 3.92088 12.7083 5.41665 12.7083C6.04584 12.7083 6.62492 12.4938 7.08471 12.1338C7.10258 12.1497 7.12154 12.1647 7.14157 12.1787L11.0838 14.9382C11.0561 15.0935 11.0416 15.2534 11.0416 15.4167C11.0416 16.9124 12.2542 18.125 13.75 18.125C15.2458 18.125 16.4583 16.9124 16.4583 15.4167C16.4583 13.9209 15.2458 12.7083 13.75 12.7083C12.8727 12.7083 12.0928 13.1255 11.5978 13.7723L7.86503 11.1593C8.03172 10.8079 8.12498 10.4148 8.12498 10C8.12498 9.58518 8.03172 9.19214 7.86503 8.84071L11.5978 6.22775C12.0928 6.87452 12.8727 7.29167 13.75 7.29167C15.2458 7.29167 16.4583 6.0791 16.4583 4.58333C16.4583 3.08756 15.2458 1.875 13.75 1.875ZM12.2916 4.58333C12.2916 3.77792 12.9446 3.125 13.75 3.125C14.5554 3.125 15.2083 3.77792 15.2083 4.58333C15.2083 5.38875 14.5554 6.04167 13.75 6.04167C12.9446 6.04167 12.2916 5.38875 12.2916 4.58333ZM5.41665 8.54167C4.61123 8.54167 3.95831 9.19458 3.95831 10C3.95831 10.8054 4.61123 11.4583 5.41665 11.4583C6.22206 11.4583 6.87498 10.8054 6.87498 10C6.87498 9.19458 6.22206 8.54167 5.41665 8.54167ZM13.75 13.9583C12.9446 13.9583 12.2916 14.6113 12.2916 15.4167C12.2916 16.2221 12.9446 16.875 13.75 16.875C14.5554 16.875 15.2083 16.2221 15.2083 15.4167C15.2083 14.6113 14.5554 13.9583 13.75 13.9583Z" fill="white"/>
</svg>
