<svg width="24" height="24" viewBox="0 0 24 24" fill="none" xmlns="http://www.w3.org/2000/svg">
<path d="M21 12C21 16.2426 21 18.364 19.682 19.682C18.364 21 16.2426 21 12 21C7.75736 21 5.63604 21 4.31802 19.682C3 18.364 3 16.2426 3 12C3 7.75736 3 5.63604 4.31802 4.31802C5.63604 3 7.75736 3 12 3" stroke="url(#paint0_linear_1_352)" stroke-width="1.5" stroke-linecap="round"/>
<path d="M3 12.8159L4.56721 11.4917C5.38256 10.8028 6.6114 10.8423 7.37749 11.5821L11.2157 15.2884C11.8306 15.8822 12.7985 15.9632 13.5099 15.4804L13.7767 15.2993C14.8005 14.6045 16.1857 14.685 17.1158 15.4933L20 18" stroke="url(#paint1_linear_1_352)" stroke-width="1.5" stroke-linecap="round"/>
<path d="M15.8028 9.05919L16.3051 8.50223H16.3051L15.8028 9.05919ZM17.5 4.87914L16.9585 5.39803C17.0999 5.54567 17.2955 5.62914 17.5 5.62914C17.7045 5.62914 17.9001 5.54567 18.0415 5.39803L17.5 4.87914ZM19.1972 9.05919L18.6949 8.50224L19.1972 9.05919ZM17.5 10L17.5 9.25H17.5L17.5 10ZM16.3051 8.50223C15.8829 8.12147 15.4793 7.69719 15.1862 7.26799C14.8869 6.82971 14.75 6.45502 14.75 6.15763H13.25C13.25 6.88492 13.5684 7.55868 13.9474 8.11384C14.3327 8.67808 14.8305 9.19224 15.3005 9.61614L16.3051 8.50223ZM14.75 6.15763C14.75 5.31493 15.1151 4.92392 15.4271 4.80471C15.7422 4.6843 16.3121 4.72342 16.9585 5.39803L18.0415 4.36026C17.113 3.39121 15.9328 3.0057 14.8917 3.40351C13.8474 3.80251 13.25 4.87258 13.25 6.15763H14.75ZM19.6995 9.61615C20.1695 9.19225 20.6673 8.67809 21.0526 8.11385C21.4317 7.55868 21.75 6.88491 21.75 6.15762H20.25C20.25 6.45503 20.1131 6.82972 19.8138 7.268C19.5207 7.6972 19.1171 8.12148 18.6949 8.50224L19.6995 9.61615ZM21.75 6.15762C21.75 4.87257 21.1526 3.80251 20.1083 3.4035C19.0672 3.0057 17.887 3.39121 16.9585 4.36026L18.0415 5.39803C18.6879 4.72342 19.2578 4.68429 19.5729 4.8047C19.8849 4.92392 20.25 5.31492 20.25 6.15762H21.75ZM15.3005 9.61614C15.9541 10.2055 16.5119 10.75 17.5 10.75L17.5 9.25C17.1801 9.25 17.0425 9.16724 16.3051 8.50223L15.3005 9.61614ZM18.6949 8.50224C17.9575 9.16724 17.8199 9.25 17.5 9.25L17.5 10.75C18.4881 10.75 19.046 10.2056 19.6995 9.61615L18.6949 8.50224Z" fill="url(#paint2_linear_1_352)"/>
<defs>
<linearGradient id="paint0_linear_1_352" x1="21" y1="21" x2="3" y2="3" gradientUnits="userSpaceOnUse">
<stop stop-color="#BB3DA0"/>
<stop offset="1" stop-color="#A762EA"/>
</linearGradient>
<linearGradient id="paint1_linear_1_352" x1="20" y1="18" x2="15.071" y2="6.02959" gradientUnits="userSpaceOnUse">
<stop stop-color="#BB3DA0"/>
<stop offset="1" stop-color="#A762EA"/>
</linearGradient>
<linearGradient id="paint2_linear_1_352" x1="21" y1="10" x2="15.0706" y2="3.08235" gradientUnits="userSpaceOnUse">
<stop stop-color="#BB3DA0"/>
<stop offset="1" stop-color="#A762EA"/>
</linearGradient>
</defs>
</svg>
