<svg width="24" height="24" viewBox="0 0 24 24" fill="none" xmlns="http://www.w3.org/2000/svg">
<path d="M11.4132 14.8175C11.4457 14.8466 11.4781 14.8755 11.5103 14.9043C11.5811 14.9747 11.6551 15.0247 11.7378 15.0565C11.8208 15.0884 11.9074 15.1 12 15.1C12.0926 15.1 12.1792 15.0884 12.2622 15.0565C12.3447 15.0248 12.4186 14.9749 12.4892 14.9048C13.2878 14.2113 14.1884 13.4168 14.889 12.5304C15.5903 11.6432 16.1 10.6531 16.1 9.56842C16.1 8.59827 15.7866 7.92773 15.3259 7.50037C14.8671 7.07476 14.2727 6.9 13.7263 6.9C13.008 6.9 12.4179 7.33978 11.9998 7.7083C11.5771 7.33899 10.9515 6.9 10.2737 6.9C9.72727 6.9 9.13287 7.07476 8.67409 7.50037C8.21344 7.92773 7.9 8.59827 7.9 9.56842C7.9 10.6533 8.40993 11.633 9.1112 12.5149C9.78343 13.3602 10.6402 14.1263 11.4132 14.8175ZM9.36316 9.56842C9.36316 9.13607 9.44603 8.83612 9.59462 8.64574C9.73937 8.46028 9.95906 8.36316 10.2737 8.36316C10.3462 8.36316 10.4379 8.38999 10.5448 8.44339C10.6502 8.49612 10.763 8.57101 10.8757 8.65808C11.0998 8.83126 11.3151 9.04613 11.4592 9.21049C11.6042 9.40203 11.8014 9.5 12.0421 9.5C12.2841 9.5 12.4822 9.40097 12.6274 9.20737C12.7495 9.0445 12.9442 8.82932 13.1533 8.65592C13.2578 8.56929 13.3637 8.49492 13.464 8.44262C13.5654 8.38975 13.6542 8.36316 13.7263 8.36316C14.0379 8.36316 14.2585 8.46878 14.4047 8.6606C14.5544 8.85713 14.6368 9.15823 14.6368 9.56842C14.6368 10.2297 14.2953 10.9025 13.779 11.5648C13.2815 12.2031 12.6318 12.819 12 13.3915C11.3682 12.819 10.7185 12.2031 10.221 11.5648C9.70467 10.9025 9.36316 10.2297 9.36316 9.56842Z" fill="white"/>
<path d="M11.4132 14.8175C11.4457 14.8466 11.4781 14.8755 11.5103 14.9043C11.5811 14.9747 11.6551 15.0247 11.7378 15.0565C11.8208 15.0884 11.9074 15.1 12 15.1C12.0926 15.1 12.1792 15.0884 12.2622 15.0565C12.3447 15.0248 12.4186 14.9749 12.4892 14.9048C13.2878 14.2113 14.1884 13.4168 14.889 12.5304C15.5903 11.6432 16.1 10.6531 16.1 9.56842C16.1 8.59827 15.7866 7.92773 15.3259 7.50037C14.8671 7.07476 14.2727 6.9 13.7263 6.9C13.008 6.9 12.4179 7.33978 11.9998 7.7083C11.5771 7.33899 10.9515 6.9 10.2737 6.9C9.72727 6.9 9.13287 7.07476 8.67409 7.50037C8.21344 7.92773 7.9 8.59827 7.9 9.56842C7.9 10.6533 8.40993 11.633 9.1112 12.5149C9.78343 13.3602 10.6402 14.1263 11.4132 14.8175ZM9.36316 9.56842C9.36316 9.13607 9.44603 8.83612 9.59462 8.64574C9.73937 8.46028 9.95906 8.36316 10.2737 8.36316C10.3462 8.36316 10.4379 8.38999 10.5448 8.44339C10.6502 8.49612 10.763 8.57101 10.8757 8.65808C11.0998 8.83126 11.3151 9.04613 11.4592 9.21049C11.6042 9.40203 11.8014 9.5 12.0421 9.5C12.2841 9.5 12.4822 9.40097 12.6274 9.20737C12.7495 9.0445 12.9442 8.82932 13.1533 8.65592C13.2578 8.56929 13.3637 8.49492 13.464 8.44262C13.5654 8.38975 13.6542 8.36316 13.7263 8.36316C14.0379 8.36316 14.2585 8.46878 14.4047 8.6606C14.5544 8.85713 14.6368 9.15823 14.6368 9.56842C14.6368 10.2297 14.2953 10.9025 13.779 11.5648C13.2815 12.2031 12.6318 12.819 12 13.3915C11.3682 12.819 10.7185 12.2031 10.221 11.5648C9.70467 10.9025 9.36316 10.2297 9.36316 9.56842Z" fill="url(#paint0_linear_1_359)"/>
<path d="M11.4132 14.8175C11.4457 14.8466 11.4781 14.8755 11.5103 14.9043C11.5811 14.9747 11.6551 15.0247 11.7378 15.0565C11.8208 15.0884 11.9074 15.1 12 15.1C12.0926 15.1 12.1792 15.0884 12.2622 15.0565C12.3447 15.0248 12.4186 14.9749 12.4892 14.9048C13.2878 14.2113 14.1884 13.4168 14.889 12.5304C15.5903 11.6432 16.1 10.6531 16.1 9.56842C16.1 8.59827 15.7866 7.92773 15.3259 7.50037C14.8671 7.07476 14.2727 6.9 13.7263 6.9C13.008 6.9 12.4179 7.33978 11.9998 7.7083C11.5771 7.33899 10.9515 6.9 10.2737 6.9C9.72727 6.9 9.13287 7.07476 8.67409 7.50037C8.21344 7.92773 7.9 8.59827 7.9 9.56842C7.9 10.6533 8.40993 11.633 9.1112 12.5149C9.78343 13.3602 10.6402 14.1263 11.4132 14.8175ZM9.36316 9.56842C9.36316 9.13607 9.44603 8.83612 9.59462 8.64574C9.73937 8.46028 9.95906 8.36316 10.2737 8.36316C10.3462 8.36316 10.4379 8.38999 10.5448 8.44339C10.6502 8.49612 10.763 8.57101 10.8757 8.65808C11.0998 8.83126 11.3151 9.04613 11.4592 9.21049C11.6042 9.40203 11.8014 9.5 12.0421 9.5C12.2841 9.5 12.4822 9.40097 12.6274 9.20737C12.7495 9.0445 12.9442 8.82932 13.1533 8.65592C13.2578 8.56929 13.3637 8.49492 13.464 8.44262C13.5654 8.38975 13.6542 8.36316 13.7263 8.36316C14.0379 8.36316 14.2585 8.46878 14.4047 8.6606C14.5544 8.85713 14.6368 9.15823 14.6368 9.56842C14.6368 10.2297 14.2953 10.9025 13.779 11.5648C13.2815 12.2031 12.6318 12.819 12 13.3915C11.3682 12.819 10.7185 12.2031 10.221 11.5648C9.70467 10.9025 9.36316 10.2297 9.36316 9.56842Z" stroke="white" stroke-width="0.2"/>
<path d="M11.4132 14.8175C11.4457 14.8466 11.4781 14.8755 11.5103 14.9043C11.5811 14.9747 11.6551 15.0247 11.7378 15.0565C11.8208 15.0884 11.9074 15.1 12 15.1C12.0926 15.1 12.1792 15.0884 12.2622 15.0565C12.3447 15.0248 12.4186 14.9749 12.4892 14.9048C13.2878 14.2113 14.1884 13.4168 14.889 12.5304C15.5903 11.6432 16.1 10.6531 16.1 9.56842C16.1 8.59827 15.7866 7.92773 15.3259 7.50037C14.8671 7.07476 14.2727 6.9 13.7263 6.9C13.008 6.9 12.4179 7.33978 11.9998 7.7083C11.5771 7.33899 10.9515 6.9 10.2737 6.9C9.72727 6.9 9.13287 7.07476 8.67409 7.50037C8.21344 7.92773 7.9 8.59827 7.9 9.56842C7.9 10.6533 8.40993 11.633 9.1112 12.5149C9.78343 13.3602 10.6402 14.1263 11.4132 14.8175ZM9.36316 9.56842C9.36316 9.13607 9.44603 8.83612 9.59462 8.64574C9.73937 8.46028 9.95906 8.36316 10.2737 8.36316C10.3462 8.36316 10.4379 8.38999 10.5448 8.44339C10.6502 8.49612 10.763 8.57101 10.8757 8.65808C11.0998 8.83126 11.3151 9.04613 11.4592 9.21049C11.6042 9.40203 11.8014 9.5 12.0421 9.5C12.2841 9.5 12.4822 9.40097 12.6274 9.20737C12.7495 9.0445 12.9442 8.82932 13.1533 8.65592C13.2578 8.56929 13.3637 8.49492 13.464 8.44262C13.5654 8.38975 13.6542 8.36316 13.7263 8.36316C14.0379 8.36316 14.2585 8.46878 14.4047 8.6606C14.5544 8.85713 14.6368 9.15823 14.6368 9.56842C14.6368 10.2297 14.2953 10.9025 13.779 11.5648C13.2815 12.2031 12.6318 12.819 12 13.3915C11.3682 12.819 10.7185 12.2031 10.221 11.5648C9.70467 10.9025 9.36316 10.2297 9.36316 9.56842Z" stroke="url(#paint1_linear_1_359)" stroke-width="0.2"/>
<path d="M2.05944 19.7878L2.05941 19.7877L2.05788 19.7899C1.97623 19.9027 1.92479 20.0527 1.91192 20.206C1.89924 20.3572 1.92345 20.5197 2.00219 20.6595C2.11565 20.9421 2.43413 21.1 2.69444 21.1H2.69472H2.69498H2.69525H2.69552H2.69579H2.69605H2.69632H2.69658H2.69684H2.6971H2.69737H2.69762H2.69788H2.69814H2.6984H2.69865H2.69891H2.69916H2.69941H2.69966H2.69991H2.70016H2.70041H2.70066H2.70091H2.70115H2.7014H2.70164H2.70188H2.70212H2.70237H2.70261H2.70284H2.70308H2.70332H2.70356H2.70379H2.70403H2.70426H2.70449H2.70472H2.70495H2.70518H2.70541H2.70564H2.70587H2.7061H2.70632H2.70655H2.70677H2.70699H2.70721H2.70744H2.70766H2.70788H2.7081H2.70831H2.70853H2.70875H2.70896H2.70918H2.70939H2.7096H2.70982H2.71003H2.71024H2.71045H2.71066H2.71087H2.71107H2.71128H2.71149H2.71169H2.7119H2.7121H2.7123H2.71251H2.71271H2.71291H2.71311H2.71331H2.71351H2.7137H2.7139H2.7141H2.71429H2.71449H2.71468H2.71488H2.71507H2.71526H2.71545H2.71564H2.71584H2.71602H2.71621H2.7164H2.71659H2.71678H2.71696H2.71715H2.71733H2.71752H2.7177H2.71788H2.71807H2.71825H2.71843H2.71861H2.71879H2.71897H2.71915H2.71933H2.71951H2.71968H2.71986H2.72004H2.72021H2.72039H2.72056H2.72073H2.72091H2.72108H2.72125H2.72142H2.72159H2.72176H2.72193H2.7221H2.72227H2.72244H2.72261H2.72277H2.72294H2.72311H2.72327H2.72344H2.7236H2.72377H2.72393H2.72409H2.72426H2.72442H2.72458H2.72474H2.7249H2.72506H2.72522H2.72538H2.72554H2.7257H2.72586H2.72602H2.72617H2.72633H2.72649H2.72664H2.7268H2.72695H2.72711H2.72726H2.72742H2.72757H2.72773H2.72788H2.72803H2.72818H2.72833H2.72849H2.72864H2.72879H2.72894H2.72909H2.72924H2.72939H2.72954H2.72969H2.72983H2.72998H2.73013H2.73028H2.73042H2.73057H2.73072H2.73086H2.73101H2.73116H2.7313H2.73145H2.73159H2.73174H2.73188H2.73202H2.73217H2.73231H2.73245H2.7326H2.73274H2.73288H2.73302H2.73317H2.73331H2.73345H2.73359H2.73373H2.73387H2.73401H2.73415H2.73429H2.73443H2.73457H2.73471H2.73485H2.73499H2.73513H2.73527H2.73541H2.73555H2.73569H2.73583H2.73596H2.7361H2.73624H2.73638H2.73652H2.73665H2.73679H2.73693H2.73707H2.7372H2.73734H2.73748H2.73761H2.73775H2.73789H2.73802H2.73816H2.7383H2.73843H2.73857H2.7387H2.73884H2.73898H2.73911H2.73925H2.73938H2.73952H2.73966H2.73979H2.73993H2.74006H2.7402H2.74033H2.74047H2.74061H2.74074H2.74088H2.74101H2.74115H2.74128H2.74142H2.74155H2.74169H2.74183H2.74196H2.7421H2.74223H2.74237H2.74251H2.74264H2.74278H2.74291H2.74305H2.74319H2.74332H2.74346H2.7436H2.74373H2.74387H2.74401H2.74414H2.74428H2.74442H2.74455H2.74469H2.74483H2.74497H2.7451H2.74524H2.74538H2.74552H2.74566H2.74579H2.74593H2.74607H2.74621H2.74635H2.74649H2.74663H2.74677H2.74691H2.74705H2.74719H2.74733H2.74747H2.74761H2.74775H2.74789H2.74803H2.74817H2.74832H2.74846H2.7486H2.74874H2.74889H2.74903H2.74917H2.74931H2.74946H2.7496H2.74975H2.74989H2.75004H2.75018H2.75033H2.75047H2.75062H2.75076H2.75091H2.75106H2.7512H2.75135H2.7515H2.75165H2.7518H2.75194H2.75209H2.75224H2.75239H2.75254H2.75269H2.75284H2.753H2.75315H2.7533H2.75345H2.7536H2.75376H2.75391H2.75406H2.75422H2.75437H2.75453H2.75468H2.75484H2.75499H2.75515H2.75531H2.75547H2.75562H2.75578H2.75594H2.7561H2.75626H2.75642H2.75658H2.75674H2.7569H2.75706H2.75723H2.75739H2.75755H2.75772H2.75788H2.75804H2.75821H2.75837H2.75854H2.75871H2.75887H2.75904H2.75921H2.75938H2.75955H2.75972H2.75989H2.76006H2.76023H2.7604H2.76058H2.76075H2.76092H2.7611H2.76127H2.76145H2.76162H2.7618H2.76198H2.76215H2.76233H2.76251H2.76269H2.76287H2.76305H2.76323H2.76341H2.7636H2.76378H2.76396H2.76415H2.76433H2.76452H2.76471H2.76489H2.76508H2.76527H2.76546H2.76565H2.76584H2.76603H2.76622H2.76641H2.7666H2.7668H2.76699H2.76719H2.76738H2.76758H2.76778H2.76798H2.76817H2.76837H2.76857H2.76877H2.76898H2.76918H2.76938H2.76959H2.76979H2.77H2.7702H2.77041H2.77062H2.77082H2.77103H2.77124H2.77145H2.77167H2.77188H2.77209H2.7723H2.77252H2.77274H2.77295H2.77317H2.77339H2.77361H2.77383H2.77405H2.77427H2.77449H2.77471H2.77494H2.77516H2.77539H2.77561H2.77584H2.77607H2.7763H2.77653H2.77676H2.77699H2.77722H2.77746H2.77769H2.77793H2.77816H2.7784H2.77864H2.77888H2.77912H2.77936H2.7796H2.77984H2.78009H2.78033H2.78058H2.78082H2.78107H2.78132H2.78157H2.78182H2.78207H2.78232H2.78258H2.78283H2.78309H2.78334H2.7836H2.78386H2.78412H2.78438H2.78464H2.7849H2.78516H2.78543H2.78569H2.78596H2.78623H2.7865H2.78677H2.78704V21.1007L2.79914 21.0993C2.82255 21.0964 2.86174 21.0921 2.91573 21.0861C3.76572 20.9916 8.28599 20.4891 12.7202 19.0138C15.0778 18.2294 17.4186 17.1677 19.1718 15.7406C20.9264 14.3123 22.1 12.5111 22.1 10.2525C22.1 5.62202 17.5456 1.9 12 1.9C6.45444 1.9 1.9 5.62202 1.9 10.2525C1.9 12.5106 2.95259 14.6231 4.82474 16.1702L2.05944 19.7878ZM6.5699 16.599L6.56994 16.599L6.57175 16.5965C6.72147 16.3896 6.77942 16.1721 6.72948 15.95C6.72398 15.72 6.56273 15.5067 6.40919 15.4004C4.53252 14.072 3.48889 12.2291 3.48889 10.3005C3.48889 6.58555 7.31033 3.53939 12 3.53939C16.6902 3.53939 20.5102 6.58566 20.4648 10.2993V10.3005C20.4648 12.173 19.2912 13.6941 17.6013 14.9093C15.9125 16.1238 13.725 17.0196 11.7386 17.6419L11.7382 17.6421C9.00304 18.5108 6.26693 19.0303 4.49751 19.2837L6.5699 16.599Z" fill="white"/>
<path d="M2.05944 19.7878L2.05941 19.7877L2.05788 19.7899C1.97623 19.9027 1.92479 20.0527 1.91192 20.206C1.89924 20.3572 1.92345 20.5197 2.00219 20.6595C2.11565 20.9421 2.43413 21.1 2.69444 21.1H2.69472H2.69498H2.69525H2.69552H2.69579H2.69605H2.69632H2.69658H2.69684H2.6971H2.69737H2.69762H2.69788H2.69814H2.6984H2.69865H2.69891H2.69916H2.69941H2.69966H2.69991H2.70016H2.70041H2.70066H2.70091H2.70115H2.7014H2.70164H2.70188H2.70212H2.70237H2.70261H2.70284H2.70308H2.70332H2.70356H2.70379H2.70403H2.70426H2.70449H2.70472H2.70495H2.70518H2.70541H2.70564H2.70587H2.7061H2.70632H2.70655H2.70677H2.70699H2.70721H2.70744H2.70766H2.70788H2.7081H2.70831H2.70853H2.70875H2.70896H2.70918H2.70939H2.7096H2.70982H2.71003H2.71024H2.71045H2.71066H2.71087H2.71107H2.71128H2.71149H2.71169H2.7119H2.7121H2.7123H2.71251H2.71271H2.71291H2.71311H2.71331H2.71351H2.7137H2.7139H2.7141H2.71429H2.71449H2.71468H2.71488H2.71507H2.71526H2.71545H2.71564H2.71584H2.71602H2.71621H2.7164H2.71659H2.71678H2.71696H2.71715H2.71733H2.71752H2.7177H2.71788H2.71807H2.71825H2.71843H2.71861H2.71879H2.71897H2.71915H2.71933H2.71951H2.71968H2.71986H2.72004H2.72021H2.72039H2.72056H2.72073H2.72091H2.72108H2.72125H2.72142H2.72159H2.72176H2.72193H2.7221H2.72227H2.72244H2.72261H2.72277H2.72294H2.72311H2.72327H2.72344H2.7236H2.72377H2.72393H2.72409H2.72426H2.72442H2.72458H2.72474H2.7249H2.72506H2.72522H2.72538H2.72554H2.7257H2.72586H2.72602H2.72617H2.72633H2.72649H2.72664H2.7268H2.72695H2.72711H2.72726H2.72742H2.72757H2.72773H2.72788H2.72803H2.72818H2.72833H2.72849H2.72864H2.72879H2.72894H2.72909H2.72924H2.72939H2.72954H2.72969H2.72983H2.72998H2.73013H2.73028H2.73042H2.73057H2.73072H2.73086H2.73101H2.73116H2.7313H2.73145H2.73159H2.73174H2.73188H2.73202H2.73217H2.73231H2.73245H2.7326H2.73274H2.73288H2.73302H2.73317H2.73331H2.73345H2.73359H2.73373H2.73387H2.73401H2.73415H2.73429H2.73443H2.73457H2.73471H2.73485H2.73499H2.73513H2.73527H2.73541H2.73555H2.73569H2.73583H2.73596H2.7361H2.73624H2.73638H2.73652H2.73665H2.73679H2.73693H2.73707H2.7372H2.73734H2.73748H2.73761H2.73775H2.73789H2.73802H2.73816H2.7383H2.73843H2.73857H2.7387H2.73884H2.73898H2.73911H2.73925H2.73938H2.73952H2.73966H2.73979H2.73993H2.74006H2.7402H2.74033H2.74047H2.74061H2.74074H2.74088H2.74101H2.74115H2.74128H2.74142H2.74155H2.74169H2.74183H2.74196H2.7421H2.74223H2.74237H2.74251H2.74264H2.74278H2.74291H2.74305H2.74319H2.74332H2.74346H2.7436H2.74373H2.74387H2.74401H2.74414H2.74428H2.74442H2.74455H2.74469H2.74483H2.74497H2.7451H2.74524H2.74538H2.74552H2.74566H2.74579H2.74593H2.74607H2.74621H2.74635H2.74649H2.74663H2.74677H2.74691H2.74705H2.74719H2.74733H2.74747H2.74761H2.74775H2.74789H2.74803H2.74817H2.74832H2.74846H2.7486H2.74874H2.74889H2.74903H2.74917H2.74931H2.74946H2.7496H2.74975H2.74989H2.75004H2.75018H2.75033H2.75047H2.75062H2.75076H2.75091H2.75106H2.7512H2.75135H2.7515H2.75165H2.7518H2.75194H2.75209H2.75224H2.75239H2.75254H2.75269H2.75284H2.753H2.75315H2.7533H2.75345H2.7536H2.75376H2.75391H2.75406H2.75422H2.75437H2.75453H2.75468H2.75484H2.75499H2.75515H2.75531H2.75547H2.75562H2.75578H2.75594H2.7561H2.75626H2.75642H2.75658H2.75674H2.7569H2.75706H2.75723H2.75739H2.75755H2.75772H2.75788H2.75804H2.75821H2.75837H2.75854H2.75871H2.75887H2.75904H2.75921H2.75938H2.75955H2.75972H2.75989H2.76006H2.76023H2.7604H2.76058H2.76075H2.76092H2.7611H2.76127H2.76145H2.76162H2.7618H2.76198H2.76215H2.76233H2.76251H2.76269H2.76287H2.76305H2.76323H2.76341H2.7636H2.76378H2.76396H2.76415H2.76433H2.76452H2.76471H2.76489H2.76508H2.76527H2.76546H2.76565H2.76584H2.76603H2.76622H2.76641H2.7666H2.7668H2.76699H2.76719H2.76738H2.76758H2.76778H2.76798H2.76817H2.76837H2.76857H2.76877H2.76898H2.76918H2.76938H2.76959H2.76979H2.77H2.7702H2.77041H2.77062H2.77082H2.77103H2.77124H2.77145H2.77167H2.77188H2.77209H2.7723H2.77252H2.77274H2.77295H2.77317H2.77339H2.77361H2.77383H2.77405H2.77427H2.77449H2.77471H2.77494H2.77516H2.77539H2.77561H2.77584H2.77607H2.7763H2.77653H2.77676H2.77699H2.77722H2.77746H2.77769H2.77793H2.77816H2.7784H2.77864H2.77888H2.77912H2.77936H2.7796H2.77984H2.78009H2.78033H2.78058H2.78082H2.78107H2.78132H2.78157H2.78182H2.78207H2.78232H2.78258H2.78283H2.78309H2.78334H2.7836H2.78386H2.78412H2.78438H2.78464H2.7849H2.78516H2.78543H2.78569H2.78596H2.78623H2.7865H2.78677H2.78704V21.1007L2.79914 21.0993C2.82255 21.0964 2.86174 21.0921 2.91573 21.0861C3.76572 20.9916 8.28599 20.4891 12.7202 19.0138C15.0778 18.2294 17.4186 17.1677 19.1718 15.7406C20.9264 14.3123 22.1 12.5111 22.1 10.2525C22.1 5.62202 17.5456 1.9 12 1.9C6.45444 1.9 1.9 5.62202 1.9 10.2525C1.9 12.5106 2.95259 14.6231 4.82474 16.1702L2.05944 19.7878ZM6.5699 16.599L6.56994 16.599L6.57175 16.5965C6.72147 16.3896 6.77942 16.1721 6.72948 15.95C6.72398 15.72 6.56273 15.5067 6.40919 15.4004C4.53252 14.072 3.48889 12.2291 3.48889 10.3005C3.48889 6.58555 7.31033 3.53939 12 3.53939C16.6902 3.53939 20.5102 6.58566 20.4648 10.2993V10.3005C20.4648 12.173 19.2912 13.6941 17.6013 14.9093C15.9125 16.1238 13.725 17.0196 11.7386 17.6419L11.7382 17.6421C9.00304 18.5108 6.26693 19.0303 4.49751 19.2837L6.5699 16.599Z" fill="url(#paint2_linear_1_359)"/>
<path d="M2.05944 19.7878L2.05941 19.7877L2.05788 19.7899C1.97623 19.9027 1.92479 20.0527 1.91192 20.206C1.89924 20.3572 1.92345 20.5197 2.00219 20.6595C2.11565 20.9421 2.43413 21.1 2.69444 21.1H2.69472H2.69498H2.69525H2.69552H2.69579H2.69605H2.69632H2.69658H2.69684H2.6971H2.69737H2.69762H2.69788H2.69814H2.6984H2.69865H2.69891H2.69916H2.69941H2.69966H2.69991H2.70016H2.70041H2.70066H2.70091H2.70115H2.7014H2.70164H2.70188H2.70212H2.70237H2.70261H2.70284H2.70308H2.70332H2.70356H2.70379H2.70403H2.70426H2.70449H2.70472H2.70495H2.70518H2.70541H2.70564H2.70587H2.7061H2.70632H2.70655H2.70677H2.70699H2.70721H2.70744H2.70766H2.70788H2.7081H2.70831H2.70853H2.70875H2.70896H2.70918H2.70939H2.7096H2.70982H2.71003H2.71024H2.71045H2.71066H2.71087H2.71107H2.71128H2.71149H2.71169H2.7119H2.7121H2.7123H2.71251H2.71271H2.71291H2.71311H2.71331H2.71351H2.7137H2.7139H2.7141H2.71429H2.71449H2.71468H2.71488H2.71507H2.71526H2.71545H2.71564H2.71584H2.71602H2.71621H2.7164H2.71659H2.71678H2.71696H2.71715H2.71733H2.71752H2.7177H2.71788H2.71807H2.71825H2.71843H2.71861H2.71879H2.71897H2.71915H2.71933H2.71951H2.71968H2.71986H2.72004H2.72021H2.72039H2.72056H2.72073H2.72091H2.72108H2.72125H2.72142H2.72159H2.72176H2.72193H2.7221H2.72227H2.72244H2.72261H2.72277H2.72294H2.72311H2.72327H2.72344H2.7236H2.72377H2.72393H2.72409H2.72426H2.72442H2.72458H2.72474H2.7249H2.72506H2.72522H2.72538H2.72554H2.7257H2.72586H2.72602H2.72617H2.72633H2.72649H2.72664H2.7268H2.72695H2.72711H2.72726H2.72742H2.72757H2.72773H2.72788H2.72803H2.72818H2.72833H2.72849H2.72864H2.72879H2.72894H2.72909H2.72924H2.72939H2.72954H2.72969H2.72983H2.72998H2.73013H2.73028H2.73042H2.73057H2.73072H2.73086H2.73101H2.73116H2.7313H2.73145H2.73159H2.73174H2.73188H2.73202H2.73217H2.73231H2.73245H2.7326H2.73274H2.73288H2.73302H2.73317H2.73331H2.73345H2.73359H2.73373H2.73387H2.73401H2.73415H2.73429H2.73443H2.73457H2.73471H2.73485H2.73499H2.73513H2.73527H2.73541H2.73555H2.73569H2.73583H2.73596H2.7361H2.73624H2.73638H2.73652H2.73665H2.73679H2.73693H2.73707H2.7372H2.73734H2.73748H2.73761H2.73775H2.73789H2.73802H2.73816H2.7383H2.73843H2.73857H2.7387H2.73884H2.73898H2.73911H2.73925H2.73938H2.73952H2.73966H2.73979H2.73993H2.74006H2.7402H2.74033H2.74047H2.74061H2.74074H2.74088H2.74101H2.74115H2.74128H2.74142H2.74155H2.74169H2.74183H2.74196H2.7421H2.74223H2.74237H2.74251H2.74264H2.74278H2.74291H2.74305H2.74319H2.74332H2.74346H2.7436H2.74373H2.74387H2.74401H2.74414H2.74428H2.74442H2.74455H2.74469H2.74483H2.74497H2.7451H2.74524H2.74538H2.74552H2.74566H2.74579H2.74593H2.74607H2.74621H2.74635H2.74649H2.74663H2.74677H2.74691H2.74705H2.74719H2.74733H2.74747H2.74761H2.74775H2.74789H2.74803H2.74817H2.74832H2.74846H2.7486H2.74874H2.74889H2.74903H2.74917H2.74931H2.74946H2.7496H2.74975H2.74989H2.75004H2.75018H2.75033H2.75047H2.75062H2.75076H2.75091H2.75106H2.7512H2.75135H2.7515H2.75165H2.7518H2.75194H2.75209H2.75224H2.75239H2.75254H2.75269H2.75284H2.753H2.75315H2.7533H2.75345H2.7536H2.75376H2.75391H2.75406H2.75422H2.75437H2.75453H2.75468H2.75484H2.75499H2.75515H2.75531H2.75547H2.75562H2.75578H2.75594H2.7561H2.75626H2.75642H2.75658H2.75674H2.7569H2.75706H2.75723H2.75739H2.75755H2.75772H2.75788H2.75804H2.75821H2.75837H2.75854H2.75871H2.75887H2.75904H2.75921H2.75938H2.75955H2.75972H2.75989H2.76006H2.76023H2.7604H2.76058H2.76075H2.76092H2.7611H2.76127H2.76145H2.76162H2.7618H2.76198H2.76215H2.76233H2.76251H2.76269H2.76287H2.76305H2.76323H2.76341H2.7636H2.76378H2.76396H2.76415H2.76433H2.76452H2.76471H2.76489H2.76508H2.76527H2.76546H2.76565H2.76584H2.76603H2.76622H2.76641H2.7666H2.7668H2.76699H2.76719H2.76738H2.76758H2.76778H2.76798H2.76817H2.76837H2.76857H2.76877H2.76898H2.76918H2.76938H2.76959H2.76979H2.77H2.7702H2.77041H2.77062H2.77082H2.77103H2.77124H2.77145H2.77167H2.77188H2.77209H2.7723H2.77252H2.77274H2.77295H2.77317H2.77339H2.77361H2.77383H2.77405H2.77427H2.77449H2.77471H2.77494H2.77516H2.77539H2.77561H2.77584H2.77607H2.7763H2.77653H2.77676H2.77699H2.77722H2.77746H2.77769H2.77793H2.77816H2.7784H2.77864H2.77888H2.77912H2.77936H2.7796H2.77984H2.78009H2.78033H2.78058H2.78082H2.78107H2.78132H2.78157H2.78182H2.78207H2.78232H2.78258H2.78283H2.78309H2.78334H2.7836H2.78386H2.78412H2.78438H2.78464H2.7849H2.78516H2.78543H2.78569H2.78596H2.78623H2.7865H2.78677H2.78704V21.1007L2.79914 21.0993C2.82255 21.0964 2.86174 21.0921 2.91573 21.0861C3.76572 20.9916 8.28599 20.4891 12.7202 19.0138C15.0778 18.2294 17.4186 17.1677 19.1718 15.7406C20.9264 14.3123 22.1 12.5111 22.1 10.2525C22.1 5.62202 17.5456 1.9 12 1.9C6.45444 1.9 1.9 5.62202 1.9 10.2525C1.9 12.5106 2.95259 14.6231 4.82474 16.1702L2.05944 19.7878ZM6.5699 16.599L6.56994 16.599L6.57175 16.5965C6.72147 16.3896 6.77942 16.1721 6.72948 15.95C6.72398 15.72 6.56273 15.5067 6.40919 15.4004C4.53252 14.072 3.48889 12.2291 3.48889 10.3005C3.48889 6.58555 7.31033 3.53939 12 3.53939C16.6902 3.53939 20.5102 6.58566 20.4648 10.2993V10.3005C20.4648 12.173 19.2912 13.6941 17.6013 14.9093C15.9125 16.1238 13.725 17.0196 11.7386 17.6419L11.7382 17.6421C9.00304 18.5108 6.26693 19.0303 4.49751 19.2837L6.5699 16.599Z" stroke="white" stroke-width="0.2"/>
<path d="M2.05944 19.7878L2.05941 19.7877L2.05788 19.7899C1.97623 19.9027 1.92479 20.0527 1.91192 20.206C1.89924 20.3572 1.92345 20.5197 2.00219 20.6595C2.11565 20.9421 2.43413 21.1 2.69444 21.1H2.69472H2.69498H2.69525H2.69552H2.69579H2.69605H2.69632H2.69658H2.69684H2.6971H2.69737H2.69762H2.69788H2.69814H2.6984H2.69865H2.69891H2.69916H2.69941H2.69966H2.69991H2.70016H2.70041H2.70066H2.70091H2.70115H2.7014H2.70164H2.70188H2.70212H2.70237H2.70261H2.70284H2.70308H2.70332H2.70356H2.70379H2.70403H2.70426H2.70449H2.70472H2.70495H2.70518H2.70541H2.70564H2.70587H2.7061H2.70632H2.70655H2.70677H2.70699H2.70721H2.70744H2.70766H2.70788H2.7081H2.70831H2.70853H2.70875H2.70896H2.70918H2.70939H2.7096H2.70982H2.71003H2.71024H2.71045H2.71066H2.71087H2.71107H2.71128H2.71149H2.71169H2.7119H2.7121H2.7123H2.71251H2.71271H2.71291H2.71311H2.71331H2.71351H2.7137H2.7139H2.7141H2.71429H2.71449H2.71468H2.71488H2.71507H2.71526H2.71545H2.71564H2.71584H2.71602H2.71621H2.7164H2.71659H2.71678H2.71696H2.71715H2.71733H2.71752H2.7177H2.71788H2.71807H2.71825H2.71843H2.71861H2.71879H2.71897H2.71915H2.71933H2.71951H2.71968H2.71986H2.72004H2.72021H2.72039H2.72056H2.72073H2.72091H2.72108H2.72125H2.72142H2.72159H2.72176H2.72193H2.7221H2.72227H2.72244H2.72261H2.72277H2.72294H2.72311H2.72327H2.72344H2.7236H2.72377H2.72393H2.72409H2.72426H2.72442H2.72458H2.72474H2.7249H2.72506H2.72522H2.72538H2.72554H2.7257H2.72586H2.72602H2.72617H2.72633H2.72649H2.72664H2.7268H2.72695H2.72711H2.72726H2.72742H2.72757H2.72773H2.72788H2.72803H2.72818H2.72833H2.72849H2.72864H2.72879H2.72894H2.72909H2.72924H2.72939H2.72954H2.72969H2.72983H2.72998H2.73013H2.73028H2.73042H2.73057H2.73072H2.73086H2.73101H2.73116H2.7313H2.73145H2.73159H2.73174H2.73188H2.73202H2.73217H2.73231H2.73245H2.7326H2.73274H2.73288H2.73302H2.73317H2.73331H2.73345H2.73359H2.73373H2.73387H2.73401H2.73415H2.73429H2.73443H2.73457H2.73471H2.73485H2.73499H2.73513H2.73527H2.73541H2.73555H2.73569H2.73583H2.73596H2.7361H2.73624H2.73638H2.73652H2.73665H2.73679H2.73693H2.73707H2.7372H2.73734H2.73748H2.73761H2.73775H2.73789H2.73802H2.73816H2.7383H2.73843H2.73857H2.7387H2.73884H2.73898H2.73911H2.73925H2.73938H2.73952H2.73966H2.73979H2.73993H2.74006H2.7402H2.74033H2.74047H2.74061H2.74074H2.74088H2.74101H2.74115H2.74128H2.74142H2.74155H2.74169H2.74183H2.74196H2.7421H2.74223H2.74237H2.74251H2.74264H2.74278H2.74291H2.74305H2.74319H2.74332H2.74346H2.7436H2.74373H2.74387H2.74401H2.74414H2.74428H2.74442H2.74455H2.74469H2.74483H2.74497H2.7451H2.74524H2.74538H2.74552H2.74566H2.74579H2.74593H2.74607H2.74621H2.74635H2.74649H2.74663H2.74677H2.74691H2.74705H2.74719H2.74733H2.74747H2.74761H2.74775H2.74789H2.74803H2.74817H2.74832H2.74846H2.7486H2.74874H2.74889H2.74903H2.74917H2.74931H2.74946H2.7496H2.74975H2.74989H2.75004H2.75018H2.75033H2.75047H2.75062H2.75076H2.75091H2.75106H2.7512H2.75135H2.7515H2.75165H2.7518H2.75194H2.75209H2.75224H2.75239H2.75254H2.75269H2.75284H2.753H2.75315H2.7533H2.75345H2.7536H2.75376H2.75391H2.75406H2.75422H2.75437H2.75453H2.75468H2.75484H2.75499H2.75515H2.75531H2.75547H2.75562H2.75578H2.75594H2.7561H2.75626H2.75642H2.75658H2.75674H2.7569H2.75706H2.75723H2.75739H2.75755H2.75772H2.75788H2.75804H2.75821H2.75837H2.75854H2.75871H2.75887H2.75904H2.75921H2.75938H2.75955H2.75972H2.75989H2.76006H2.76023H2.7604H2.76058H2.76075H2.76092H2.7611H2.76127H2.76145H2.76162H2.7618H2.76198H2.76215H2.76233H2.76251H2.76269H2.76287H2.76305H2.76323H2.76341H2.7636H2.76378H2.76396H2.76415H2.76433H2.76452H2.76471H2.76489H2.76508H2.76527H2.76546H2.76565H2.76584H2.76603H2.76622H2.76641H2.7666H2.7668H2.76699H2.76719H2.76738H2.76758H2.76778H2.76798H2.76817H2.76837H2.76857H2.76877H2.76898H2.76918H2.76938H2.76959H2.76979H2.77H2.7702H2.77041H2.77062H2.77082H2.77103H2.77124H2.77145H2.77167H2.77188H2.77209H2.7723H2.77252H2.77274H2.77295H2.77317H2.77339H2.77361H2.77383H2.77405H2.77427H2.77449H2.77471H2.77494H2.77516H2.77539H2.77561H2.77584H2.77607H2.7763H2.77653H2.77676H2.77699H2.77722H2.77746H2.77769H2.77793H2.77816H2.7784H2.77864H2.77888H2.77912H2.77936H2.7796H2.77984H2.78009H2.78033H2.78058H2.78082H2.78107H2.78132H2.78157H2.78182H2.78207H2.78232H2.78258H2.78283H2.78309H2.78334H2.7836H2.78386H2.78412H2.78438H2.78464H2.7849H2.78516H2.78543H2.78569H2.78596H2.78623H2.7865H2.78677H2.78704V21.1007L2.79914 21.0993C2.82255 21.0964 2.86174 21.0921 2.91573 21.0861C3.76572 20.9916 8.28599 20.4891 12.7202 19.0138C15.0778 18.2294 17.4186 17.1677 19.1718 15.7406C20.9264 14.3123 22.1 12.5111 22.1 10.2525C22.1 5.62202 17.5456 1.9 12 1.9C6.45444 1.9 1.9 5.62202 1.9 10.2525C1.9 12.5106 2.95259 14.6231 4.82474 16.1702L2.05944 19.7878ZM6.5699 16.599L6.56994 16.599L6.57175 16.5965C6.72147 16.3896 6.77942 16.1721 6.72948 15.95C6.72398 15.72 6.56273 15.5067 6.40919 15.4004C4.53252 14.072 3.48889 12.2291 3.48889 10.3005C3.48889 6.58555 7.31033 3.53939 12 3.53939C16.6902 3.53939 20.5102 6.58566 20.4648 10.2993V10.3005C20.4648 12.173 19.2912 13.6941 17.6013 14.9093C15.9125 16.1238 13.725 17.0196 11.7386 17.6419L11.7382 17.6421C9.00304 18.5108 6.26693 19.0303 4.49751 19.2837L6.5699 16.599Z" stroke="url(#paint3_linear_1_359)" stroke-width="0.2"/>
<defs>
<linearGradient id="paint0_linear_1_359" x1="16" y1="15" x2="8" y2="7" gradientUnits="userSpaceOnUse">
<stop stop-color="#BB3DA0"/>
<stop offset="1" stop-color="#A762EA"/>
</linearGradient>
<linearGradient id="paint1_linear_1_359" x1="16" y1="15" x2="8" y2="7" gradientUnits="userSpaceOnUse">
<stop stop-color="#BB3DA0"/>
<stop offset="1" stop-color="#A762EA"/>
</linearGradient>
<linearGradient id="paint2_linear_1_359" x1="22" y1="21" x2="3.02497" y2="1.02628" gradientUnits="userSpaceOnUse">
<stop stop-color="#BB3DA0"/>
<stop offset="1" stop-color="#A762EA"/>
</linearGradient>
<linearGradient id="paint3_linear_1_359" x1="22" y1="21" x2="3.02497" y2="1.02628" gradientUnits="userSpaceOnUse">
<stop stop-color="#BB3DA0"/>
<stop offset="1" stop-color="#A762EA"/>
</linearGradient>
</defs>
</svg>
