<svg width="20" height="20" viewBox="0 0 20 20" fill="none" xmlns="http://www.w3.org/2000/svg">
<g clip-path="url(#clip0_1_2429)">
<path d="M9.99998 18.3333C14.6024 18.3333 18.3333 14.6024 18.3333 10C18.3333 5.39762 14.6024 1.66666 9.99998 1.66666C5.39761 1.66666 1.66665 5.39762 1.66665 10C1.66665 11.3331 1.97966 12.593 2.5362 13.7104C2.68409 14.0073 2.73332 14.3467 2.64758 14.6672L2.15124 16.5222C1.93578 17.3275 2.67249 18.0642 3.47777 17.8487L5.3328 17.3524C5.65326 17.2667 5.99265 17.3159 6.28959 17.4638C7.40695 18.0203 8.66691 18.3333 9.99998 18.3333Z" stroke="white" stroke-width="1.5"/>
<path d="M6.66669 8.75H13.3334" stroke="white" stroke-width="1.5" stroke-linecap="round"/>
<path d="M6.66669 11.6667H11.25" stroke="white" stroke-width="1.5" stroke-linecap="round"/>
</g>
<defs>
<clipPath id="clip0_1_2429">
<rect width="20" height="20" fill="white"/>
</clipPath>
</defs>
</svg>
