<svg width="25" height="24" viewBox="0 0 25 24" fill="none" xmlns="http://www.w3.org/2000/svg">
<g id="profile_icon">
<path id="Vector" d="M19.0885 6.53845L19.5435 5.94225L19.0885 6.53845ZM20 2.64354L19.4681 3.17232C19.6089 3.31392 19.8003 3.39354 20 3.39354C20.1997 3.39354 20.3911 3.31392 20.5319 3.17232L20 2.64354ZM20.9115 6.53845L21.3665 7.13465H21.3665L20.9115 6.53845ZM19.5435 5.94225C19.0571 5.57102 18.619 5.27398 18.2659 4.88913C17.9387 4.53238 17.75 4.16375 17.75 3.69973H16.25C16.25 4.6481 16.6642 5.362 17.1606 5.90309C17.6311 6.41609 18.2372 6.83221 18.6335 7.13465L19.5435 5.94225ZM17.75 3.69973C17.75 3.28775 17.9898 2.95469 18.2973 2.81862C18.5635 2.7008 18.9874 2.68874 19.4681 3.17232L20.5319 2.11476C19.6627 1.24047 18.5865 1.0503 17.6903 1.44694C16.8352 1.82533 16.25 2.69929 16.25 3.69973H17.75ZM18.6335 7.13465C18.7825 7.24835 18.9756 7.39593 19.1793 7.51115C19.3832 7.62654 19.6656 7.75 20 7.75V6.25C20.0344 6.25 20.0168 6.26155 19.9179 6.20559C19.8187 6.14947 19.7061 6.06628 19.5435 5.94225L18.6335 7.13465ZM21.3665 7.13465C21.7628 6.83221 22.3689 6.41609 22.8394 5.90309C23.3358 5.362 23.75 4.6481 23.75 3.69973H22.25C22.25 4.16375 22.0613 4.53238 21.7341 4.88913C21.381 5.27398 20.9429 5.57102 20.4565 5.94225L21.3665 7.13465ZM23.75 3.69973C23.75 2.69929 23.1648 1.82533 22.3097 1.44694C21.4135 1.0503 20.3373 1.24047 19.4681 2.11476L20.5319 3.17232C21.0126 2.68874 21.4365 2.7008 21.7027 2.81862C22.0102 2.95469 22.25 3.28775 22.25 3.69973H23.75ZM20.4565 5.94225C20.2939 6.06628 20.1813 6.14947 20.0821 6.20559C19.9832 6.26155 19.9656 6.25 20 6.25V7.75C20.3344 7.75 20.6168 7.62654 20.8207 7.51115C21.0244 7.39593 21.2175 7.24835 21.3665 7.13465L20.4565 5.94225Z" fill="white"/>
<path id="Vector_2" d="M11.6709 8.3415L11.2704 8.97295C11.5181 9.13099 11.8342 9.13099 12.0797 8.97295L11.6709 8.3415ZM1.69946 12.6747L1.21082 12.1025C0.931095 12.3409 0.867464 12.7484 1.06074 13.0636L1.69946 12.6747ZM6.24819 13.1562L6.49527 13.8659L6.53713 13.8516L6.57698 13.8324L6.24819 13.1562ZM11.7026 13.1562L11.3799 13.8311C11.5872 13.9312 11.8283 13.9312 12.0342 13.8311L11.7026 13.1562ZM11.7187 15.5998L11.6339 16.3444L11.7237 16.3552L11.8134 16.3444L11.7187 15.5998ZM11.7504 20.4145L11.7469 19.6645L11.7504 20.4145ZM21.6995 12.6747L22.3433 13.0636C22.5324 12.7484 22.4634 12.3409 22.1806 12.1025L21.6995 12.6747ZM17.1571 13.1562L16.8372 13.8324L16.8773 13.8516L16.9193 13.8659L17.1571 13.1562ZM12.0714 7.71005C11.0133 7.03485 10.0435 6.68105 9.09224 6.66536C8.13367 6.64955 7.29103 6.9786 6.49474 7.48715C5.7122 7.98693 4.93085 8.68926 4.09596 9.46919C3.24715 10.2621 2.32402 11.154 1.21082 12.1025L2.18809 13.2469C3.335 12.2696 4.29539 11.3423 5.12381 10.5684C5.96614 9.78154 6.65571 9.16946 7.30806 8.75283C7.94665 8.34498 8.50286 8.15565 9.07738 8.16512C9.65918 8.17472 10.3567 8.38988 11.2704 8.97295L12.0714 7.71005ZM1.16144 13.1937C1.78882 13.8437 2.45715 14.3035 3.38041 14.413C4.24618 14.5157 5.24008 14.2956 6.49527 13.8659L6.00111 12.4465C4.77788 12.8652 4.05673 12.9839 3.54739 12.9235C3.09555 12.8699 2.72873 12.6647 2.23748 12.1557L1.16144 13.1937ZM6.57698 13.8324C7.7355 13.275 8.49785 13.0994 9.14977 13.1242C9.80873 13.1492 10.4474 13.3805 11.3799 13.8311L12.0254 12.4813C11.0601 12.0149 10.1843 11.6628 9.19678 11.6253C8.20224 11.5876 7.18623 11.8705 5.91941 12.48L6.57698 13.8324ZM5.76385 13.7618C6.83149 14.6721 7.71813 15.2604 8.65115 15.6498C9.58248 16.0385 10.5149 16.2097 11.6339 16.3444L11.8036 14.8552C10.7295 14.7259 9.96007 14.5745 9.22114 14.2661C8.48391 13.9584 7.73187 13.475 6.73279 12.6231L5.76385 13.7618ZM1.06074 13.0636C2.43854 15.311 3.64157 17.354 5.21495 18.8046C6.84271 20.3053 8.84145 21.1591 11.754 21.1645L11.7469 19.6645C9.18124 19.6598 7.55549 18.9289 6.22781 17.7049C4.84574 16.4307 3.76236 14.6088 2.33818 12.2858L1.06074 13.0636ZM12.0797 8.97295C12.9858 8.38988 13.6805 8.17472 14.2622 8.16512C14.8365 8.15564 15.3952 8.34498 16.0392 8.75282C16.697 9.16945 17.3947 9.78153 18.2474 10.5684C19.086 11.3423 20.0586 12.2696 21.2184 13.2469L22.1806 12.1025C21.0549 11.1539 20.12 10.2621 19.2607 9.46917C18.4156 8.68925 17.625 7.98691 16.8359 7.48714C16.0329 6.97859 15.1859 6.64954 14.2275 6.66536C13.2765 6.68105 12.3113 7.03485 11.2621 7.71005L12.0797 8.97295ZM21.1546 12.1557C20.6701 12.6647 20.3059 12.8699 19.8548 12.9235C19.3463 12.9839 18.6236 12.8652 17.3948 12.4465L16.9193 13.8659C18.1802 14.2956 19.177 14.5156 20.0414 14.413C20.9632 14.3035 21.6255 13.8437 22.2443 13.1937L21.1546 12.1557ZM17.4769 12.48C16.2021 11.8705 15.1824 11.5875 14.1883 11.6253C13.2013 11.6627 12.3301 12.0149 11.371 12.4813L12.0342 13.8311C12.9608 13.3805 13.5964 13.1492 14.2551 13.1242C14.9067 13.0994 15.6713 13.275 16.8372 13.8324L17.4769 12.48ZM16.6655 12.6231C15.6776 13.475 14.9319 13.9584 14.1987 14.2661C13.4639 14.5745 12.6964 14.7259 11.6241 14.8552L11.8134 16.3444C12.9306 16.2097 13.8607 16.0385 14.7869 15.6498C15.7148 15.2604 16.5937 14.6721 17.6494 13.7618L16.6655 12.6231ZM21.0556 12.2858C19.6661 14.6021 18.5742 16.433 17.1939 17.7102C15.8637 18.9411 14.246 19.6692 11.7469 19.6645L11.754 21.1645C14.6109 21.1698 16.5968 20.3132 18.2166 18.8142C19.7864 17.3617 20.9911 15.3177 22.3433 13.0636L21.0556 12.2858Z" fill="white"/>
</g>
</svg>
