<svg width="20" height="20" viewBox="0 0 20 20" fill="none" xmlns="http://www.w3.org/2000/svg">
<path d="M17.4793 10.1543L16.7403 10.0265L17.4793 10.1543ZM16.8914 13.5541L16.1523 13.4263L16.8914 13.5541ZM5.78148 17.0642L5.03426 17.1288L5.78148 17.0642ZM5.10467 9.237L5.85188 9.17239L5.10467 9.237ZM11.6625 4.35118L12.4026 4.47245V4.47245L11.6625 4.35118ZM11.1102 7.72165L11.8504 7.84292L11.1102 7.72165ZM5.58178 8.06457L5.09219 7.49642L5.09219 7.49642L5.58178 8.06457ZM6.78073 7.03141L7.27032 7.59957V7.59957L6.78073 7.03141ZM8.76504 3.98645L8.03907 3.79813L8.76504 3.98645ZM9.16147 2.45824L9.88744 2.64656V2.64656L9.16147 2.45824ZM10.5563 1.72029L10.3269 2.43435L10.3269 2.43435L10.5563 1.72029ZM10.6771 1.7591L10.9065 1.04504L10.9065 1.04504L10.6771 1.7591ZM8.21829 5.38551L8.87982 5.73889L8.21829 5.38551ZM11.5872 2.70627L10.8613 2.89459V2.89459L11.5872 2.70627ZM9.7285 1.77699L9.40292 1.10135L9.40292 1.10135L9.7285 1.77699ZM3.30967 17.8923L2.56245 17.9569L2.56245 17.9569L3.30967 17.8923ZM2.5 8.5285L3.24721 8.46389C3.21261 8.06375 2.86893 7.76188 2.46767 7.7792C2.0664 7.79651 1.75 8.12686 1.75 8.5285H2.5ZM16.7403 10.0265L16.1523 13.4263L17.6304 13.6819L18.2183 10.2821L16.7403 10.0265ZM11.0375 17.5833H7.16362V19.0833H11.0375V17.5833ZM6.52869 16.9996L5.85188 9.17239L4.35746 9.30161L5.03426 17.1288L6.52869 16.9996ZM16.1523 13.4263C15.7409 15.8053 13.5936 17.5833 11.0375 17.5833V19.0833C14.2835 19.0833 17.0879 16.8186 17.6304 13.6819L16.1523 13.4263ZM10.9223 4.22992L10.3701 7.60038L11.8504 7.84292L12.4026 4.47245L10.9223 4.22992ZM6.07138 8.63273L7.27032 7.59957L6.29114 6.46326L5.09219 7.49642L6.07138 8.63273ZM9.49102 4.17477L9.88744 2.64656L8.4355 2.26992L8.03907 3.79813L9.49102 4.17477ZM10.3269 2.43435L10.4477 2.47316L10.9065 1.04504L10.7857 1.00624L10.3269 2.43435ZM8.87982 5.73889C9.14441 5.24357 9.34988 4.71885 9.49102 4.17477L8.03907 3.79813C7.92794 4.22653 7.76595 4.64052 7.55676 5.03214L8.87982 5.73889ZM10.4477 2.47316C10.6639 2.54259 10.8128 2.70781 10.8613 2.89459L12.3132 2.51795C12.1308 1.81492 11.5932 1.26565 10.9065 1.04504L10.4477 2.47316ZM9.88744 2.64656C9.90711 2.57075 9.96318 2.49644 10.0541 2.45264L9.40292 1.10135C8.92757 1.33041 8.56938 1.75381 8.4355 2.26992L9.88744 2.64656ZM10.0541 2.45264C10.1374 2.4125 10.2364 2.40528 10.3269 2.43435L10.7857 1.00624C10.3306 0.860015 9.83407 0.893588 9.40292 1.10135L10.0541 2.45264ZM11.7947 9.2785H16.1123V7.7785H11.7947V9.2785ZM4.05688 17.8277L3.24721 8.46389L1.75279 8.59311L2.56245 17.9569L4.05688 17.8277ZM3.25 17.9273V8.5285H1.75V17.9273H3.25ZM2.56245 17.9569C2.54516 17.7569 2.70278 17.5833 2.90559 17.5833V19.0833C3.584 19.0833 4.11519 18.502 4.05688 17.8277L2.56245 17.9569ZM12.4026 4.47245C12.5092 3.82184 12.4787 3.1561 12.3132 2.51795L10.8613 2.89459C10.9744 3.33056 10.9952 3.78541 10.9223 4.22992L12.4026 4.47245ZM7.16362 17.5833C6.83368 17.5833 6.5573 17.3305 6.52869 16.9996L5.03426 17.1288C5.12981 18.2338 6.05394 19.0833 7.16362 19.0833V17.5833ZM7.27032 7.59957C7.83892 7.10959 8.46472 6.51598 8.87982 5.73889L7.55676 5.03214C7.27961 5.55097 6.8351 5.99451 6.29114 6.46326L7.27032 7.59957ZM18.2183 10.2821C18.4443 8.97548 17.4394 7.7785 16.1123 7.7785V9.2785C16.5068 9.2785 16.808 9.63487 16.7403 10.0265L18.2183 10.2821ZM2.90559 17.5833C3.0966 17.5833 3.25 17.7381 3.25 17.9273H1.75C1.75 18.5649 2.26657 19.0833 2.90559 19.0833V17.5833ZM10.3701 7.60038C10.2262 8.47868 10.9032 9.2785 11.7947 9.2785V7.7785C11.8304 7.7785 11.8557 7.81012 11.8504 7.84292L10.3701 7.60038ZM5.85188 9.17239C5.83416 8.96739 5.916 8.76662 6.07138 8.63273L5.09219 7.49642C4.57147 7.94513 4.29825 8.61687 4.35746 9.30161L5.85188 9.17239Z" fill="white"/>
</svg>
